<svg width="38" height="36" viewBox="0 0 38 36" fill="none" xmlns="http://www.w3.org/2000/svg">
<path d="M13.9 34V21.3707C13.9 20.4148 13.9 19.9369 14.0853 19.5719C14.2483 19.2507 14.5083 18.9896 14.8282 18.826C15.1919 18.64 15.6679 18.64 16.62 18.64H21.38C22.3321 18.64 22.8081 18.64 23.1718 18.826C23.4917 18.9896 23.7517 19.2507 23.9147 19.5719C24.1 19.9369 24.1 20.4148 24.1 21.3707V34M2 14.3733L17.368 2.80213C17.9532 2.36148 18.2459 2.14116 18.5672 2.05623C18.8509 1.98126 19.1491 1.98126 19.4328 2.05623C19.7541 2.14116 20.0468 2.36148 20.632 2.80213L36 14.3733M5.40001 11.8133V28.5387C5.40001 30.4503 5.40001 31.4061 5.77058 32.1363C6.09655 32.7785 6.61669 33.3007 7.25644 33.628C7.98374 34 8.93583 34 10.84 34H27.16C29.0642 34 30.0163 34 30.7436 33.628C31.3833 33.3007 31.9035 32.7785 32.2294 32.1363C32.6 31.4061 32.6 30.4503 32.6 28.5387V11.8133L22.264 4.03093C21.0935 3.14963 20.5083 2.70898 19.8655 2.53912C19.2982 2.38918 18.7018 2.38918 18.1345 2.53912C17.4917 2.70898 16.9065 3.14963 15.736 4.03093L5.40001 11.8133Z" stroke="#294525" stroke-width="3" stroke-linecap="round" stroke-linejoin="round"/>
</svg>
