<svg width="22" height="22" viewBox="0 0 22 22" fill="none" xmlns="http://www.w3.org/2000/svg">
<path d="M14.025 15.308L15.3083 14.0247L11.9167 10.633V6.41634H10.0833V11.3663L14.025 15.308ZM11 20.1663C9.73194 20.1663 8.54027 19.9257 7.42499 19.4445C6.30972 18.9632 5.33958 18.3101 4.51458 17.4851C3.68958 16.6601 3.03645 15.69 2.5552 14.5747C2.07395 13.4594 1.83333 12.2677 1.83333 10.9997C1.83333 9.73162 2.07395 8.53995 2.5552 7.42467C3.03645 6.3094 3.68958 5.33926 4.51458 4.51426C5.33958 3.68926 6.30972 3.03613 7.42499 2.55488C8.54027 2.07363 9.73194 1.83301 11 1.83301C12.2681 1.83301 13.4597 2.07363 14.575 2.55488C15.6903 3.03613 16.6604 3.68926 17.4854 4.51426C18.3104 5.33926 18.9635 6.3094 19.4448 7.42467C19.926 8.53995 20.1667 9.73162 20.1667 10.9997C20.1667 12.2677 19.926 13.4594 19.4448 14.5747C18.9635 15.69 18.3104 16.6601 17.4854 17.4851C16.6604 18.3101 15.6903 18.9632 14.575 19.4445C13.4597 19.9257 12.2681 20.1663 11 20.1663ZM11 18.333C13.0319 18.333 14.7621 17.6188 16.1906 16.1903C17.6191 14.7618 18.3333 13.0316 18.3333 10.9997C18.3333 8.96773 17.6191 7.23752 16.1906 5.80905C14.7621 4.38058 13.0319 3.66634 11 3.66634C8.96805 3.66634 7.23784 4.38058 5.80937 5.80905C4.3809 7.23752 3.66666 8.96773 3.66666 10.9997C3.66666 13.0316 4.3809 14.7618 5.80937 16.1903C7.23784 17.6188 8.96805 18.333 11 18.333Z" fill="#294525"/>
</svg>
